# xmcd
#
# Track frame offsets:
# 150
# 16117
# 34837
# 48172
# 64512
# 78097
# 88862
# 106659
# 118602
# 128579
# 146932
# 163297
# 182112
# 193682
#
# Disc length: 2804 seconds
#
#
# Revision: 1
# Processed by: cddbd v1.5.1PL2 Copyright (c) Steve Scherf et al.
# Submitted via: FreeRIP 2.942 
#
DISCID=b40af20e
DTITLE=Vários - Brickell Jazz
DYEAR=2002
DGENRE=Jazz
TTITLE0=Let's do it
TTITLE1=They can't take that away from me
TTITLE2=I don't know enough about you
TTITLE3=Dream a little dream of me
TTITLE4=My baby just cares for me
TTITLE5=Under a blanket of blue
TTITLE6=Comes love - alternate
TTITLE7=The look of love (theme from Cassino Royale)
TTITLE8=Love walked in
TTITLE9=Love me or leave me
TTITLE10=Stormy weather
TTITLE11=Let's call the whole thing off
TTITLE12=Blue moon
TTITLE13=The nearmess of you
EXTD=
EXTT0=
EXTT1=
EXTT2=
EXTT3=
EXTT4=
EXTT5=
EXTT6=
EXTT7=
EXTT8=
EXTT9=
EXTT10=
EXTT11=
EXTT12=
EXTT13=
PLAYORDER=
